<svg xmlns="http://www.w3.org/2000/svg" width="54" height="54" viewBox="0 0 54 54">
    <defs>
        <radialGradient id="radial-gradient" cx=".167" cy=".173" r="1.188" gradientTransform="translate(.001)" gradientUnits="objectBoundingBox">
            <stop offset="0" stop-color="#6dc9f2"/>
            <stop offset=".059" stop-color="#67c6f0"/>
            <stop offset=".138" stop-color="#56beec"/>
            <stop offset=".228" stop-color="#3ab2e6"/>
            <stop offset=".326" stop-color="#14a1de"/>
            <stop offset=".371" stop-color="#0098da"/>
            <stop offset=".448" stop-color="#008dd1"/>
            <stop offset=".621" stop-color="#007ac2"/>
            <stop offset=".802" stop-color="#006fb9"/>
            <stop offset="1" stop-color="#006cb7"/>
        </radialGradient>
        <style>
            .cls-3{fill:#fff}
        </style>
    </defs>
    <g id="Group_2957" transform="translate(.174 -.231)">
        <g id="Rectangle_609" fill="#fff" stroke="#fff" transform="translate(-.174 .231)">
            <rect width="54" height="54" stroke="none" rx="10"/>
            <rect width="53" height="53" x=".5" y=".5" fill="none" rx="9.5"/>
        </g>
        <g id="Group_2946" transform="translate(13.324 13.429)">
            <g id="Group_247">
                <g id="Group_245">
                    <g id="Group_244">
                        <g id="Group_243">
                            <g id="Group_242">
                                <path id="Path_1142" fill="url(#radial-gradient)" d="M234.49 393.17h-28.907v29.01h28.907v-9.575a1.1 1.1 0 0 0 .171-.639.986.986 0 0 0-.171-.633z" transform="translate(-205.583 -393.17)"/>
                            </g>
                        </g>
                    </g>
                </g>
                <g id="Group_246" transform="translate(0 9.946)">
                    <path id="Path_1143" d="M205.583 412.962h1.388l.313-.758h.7l.312.758h2.731v-.579l.245.58h1.416l.243-.586v.585h6.788v-1.239h.131c.093 0 .12.013.12.163v1.076h3.509v-.289a2.77 2.77 0 0 0 1.3.289h1.479l.316-.758h.7l.311.758h2.845v-.719l.431.719h2.279v-4.742h-2.256v.562l-.315-.562h-2.316v.562l-.29-.562h-3.129a2.808 2.808 0 0 0-1.357.276v-.276h-2.156v.276a1.343 1.343 0 0 0-.919-.276h-7.888l-.531 1.225-.54-1.225h-2.485v.562l-.275-.562h-2.117l-.984 2.252zm26.835-.67h-1.151l-1.539-2.548v2.548h-1.654l-.317-.758h-1.691l-.3.758h-.952a1.439 1.439 0 0 1-1.613-1.673 1.81 1.81 0 0 1 .438-1.328 1.651 1.651 0 0 1 1.235-.4h.784v.728h-.767a.792.792 0 0 0-.628.2 1.135 1.135 0 0 0-.232.771 1.162 1.162 0 0 0 .225.8.78.78 0 0 0 .565.174h.365l1.144-2.674h1.218l1.375 3.215v-3.215h1.24l1.428 2.367v-2.367h.83zm-9.615 0h-.829v-3.4h.829zm-1.3-2.48a.959.959 0 0 1-.572.9.908.908 0 0 1 .4.287.965.965 0 0 1 .136.62v.668h-.819v-.428a.992.992 0 0 0-.131-.659c-.118-.121-.3-.146-.59-.146h-.874v1.233h-.811v-3.4h1.87a1.918 1.918 0 0 1 .983.165.791.791 0 0 1 .405.759zm-3.828 2.48h-2.713v-3.4h2.713v.711h-1.9v.61h1.854v.7h-1.854v.68h1.9zm-3.319 0h-.831l-.005-2.658-1.177 2.658h-.712l-1.184-2.665v2.665h-1.652l-.311-.758h-1.694l-.314.758h-.883l1.452-3.4h1.209l1.381 3.22v-3.22h1.328l1.062 2.308.977-2.308h1.352zm13.124-1.466l-.562-1.352-.557 1.352zm-7.041-.536a.8.8 0 0 1-.4.069h-.987v-.759h1a.862.862 0 0 1 .387.058.317.317 0 0 1 .169.3.361.361 0 0 1-.17.332zm-12.249.536l-.556-1.352-.554 1.352z" class="cls-3" transform="translate(-205.583 -408.22)"/>
                    <path id="Path_1144" d="M224.279 418.866c0 .942-.7 1.138-1.415 1.138h-1.014v1.141h-1.577l-1-1.125-1.04 1.125h-3.217v-3.4h3.268l1 1.114 1.034-1.114h2.595c.642-.001 1.366.179 1.366 1.121zm-6.458 1.57h-2v-.677h1.784v-.693h-1.784v-.617h2.035l.89.989zm3.22.4l-1.246-1.385 1.246-1.34zm1.861-1.524h-1.052v-.863h1.06c.294 0 .5.118.5.417s-.197.446-.51.446zm5.481-1.568h2.712v.705h-1.9v.617h1.856v.693h-1.856v.677h1.9v.706h-2.712zm-1.028 1.82a.871.871 0 0 1 .4.286.979.979 0 0 1 .135.622v.673h-.815v-.426c0-.2.019-.506-.132-.664-.118-.124-.3-.152-.595-.152h-.87v1.242h-.815v-3.4h1.874a1.983 1.983 0 0 1 .979.163.793.793 0 0 1 .416.755.949.949 0 0 1-.577.901zm-.49-.422a.781.781 0 0 1-.4.069h-.988v-.763h1a.82.82 0 0 1 .387.059.327.327 0 0 1 .169.307.37.37 0 0 1-.168.329zm7.33.208a.945.945 0 0 1 .244.72c0 .734-.457 1.075-1.275 1.075h-1.584v-.73h1.577a.475.475 0 0 0 .332-.085.3.3 0 0 0 .1-.221.284.284 0 0 0-.1-.225.42.42 0 0 0-.288-.077c-.759-.025-1.711.024-1.711-1.052 0-.493.31-1.012 1.16-1.012h1.63v.724h-1.49a.559.559 0 0 0-.328.062.286.286 0 0 0 .058.5.955.955 0 0 0 .315.039l.439.011a1.325 1.325 0 0 1 .926.271zm3.244 1.359a1.267 1.267 0 0 1-1.1.435h-1.569v-.73h1.562a.463.463 0 0 0 .329-.085.3.3 0 0 0 .1-.221.285.285 0 0 0-.1-.225.417.417 0 0 0-.286-.077c-.763-.025-1.714.024-1.714-1.052 0-.493.313-1.012 1.164-1.012h1.62v-.676h-1.505a1.694 1.694 0 0 0-1.018.279v-.279h-2.224a1.55 1.55 0 0 0-.97.279v-.279h-3.978v.279a2.121 2.121 0 0 0-1.1-.279h-2.617v.279a1.85 1.85 0 0 0-1.145-.279h-2.933l-.671.728-.628-.728h-4.381v4.746h4.3l.691-.737.652.737h2.646V420.7h.262a2.775 2.775 0 0 0 1.131-.165v1.281h2.184v-1.238h.106c.135 0 .148.008.148.141v1.1h6.637a1.9 1.9 0 0 0 1.105-.3v.3h2.106a2.837 2.837 0 0 0 1.192-.219zm0-2.242h-1.483a.557.557 0 0 0-.328.062.268.268 0 0 0-.12.245.258.258 0 0 0 .18.254.944.944 0 0 0 .313.039l.439.011a1.309 1.309 0 0 1 .923.272.757.757 0 0 1 .076.087z" class="cls-3" transform="translate(-208.532 -411.221)"/>
                </g>
            </g>
        </g>
    </g>
</svg>
