<svg xmlns="http://www.w3.org/2000/svg" width="54" height="54" viewBox="0 0 54 54">
    <defs>
        <style>
            .cls-3{fill:#fff}
        </style>
    </defs>
    <g id="Group_3279" transform="translate(-6186 17)">
        <g id="Rectangle_51" fill="#fff" stroke="#fff" transform="translate(6186 -17)">
            <rect width="54" height="54" stroke="none" rx="10"/>
            <rect width="53" height="53" x=".5" y=".5" fill="none" rx="9.5"/>
        </g>
        <g id="Group_3264" transform="translate(574.313 -455.346)">
            <path id="Rectangle_44" fill="#0052a0" d="M0 0H30V32H0z" transform="translate(5623.688 449.346)"/>
            <g id="Group_3263" transform="translate(5627.787 452.402)">
                <g id="Group_239">
                    <path id="Path_1133" d="M123.689 482.737v21.375h12.732v-9.1h6.1v9.054h3.315v-21.329zm3.311 3.184h6.1v5.894H127zm0 9.089h6.1v5.89H127zm15.523-3.195h-6.1v-5.894h6.1z" class="cls-3" transform="translate(-123.689 -482.737)"/>
                </g>
                <g id="Group_3262" transform="translate(0 22.382)">
                    <path id="Path_1134" d="M135.946 484.685v-1.065h.2a.532.532 0 0 1-.01 1.065zm-.687 2.391h1.187a1.082 1.082 0 0 0 1.186-1.165.942.942 0 0 0-.71-1.025.867.867 0 0 0 .384-.827 1.139 1.139 0 0 0-.317-.834 1.2 1.2 0 0 0-.859-.25h-.871zm.688-.648v-1.134h.257c.511 0 .723.17.723.584 0 .366-.225.55-.683.55z" class="cls-3" transform="translate(-135.259 -482.633)"/>
                    <path id="Path_1135" d="M141.737 486a.754.754 0 0 1 0 1.491.706.706 0 0 1-.644-.749.7.7 0 0 1 .644-.742zm.573-.583v.337a.9.9 0 0 0-.757-.429 1.266 1.266 0 0 0-1.12 1.407c0 .819.483 1.429 1.129 1.429a.872.872 0 0 0 .748-.431v.342h.637v-2.655z" class="cls-3" transform="translate(-137.65 -483.719)"/>
                    <path id="Path_1136" d="M146.884 485.577v.329a.783.783 0 0 1 .721-.416.821.821 0 0 1 .659.32 1.131 1.131 0 0 1 .179.735v1.693h-.643v-1.477c0-.459-.121-.638-.438-.638s-.482.234-.482.737v1.378h-.638v-2.661z" class="cls-3" transform="translate(-140.335 -483.795)"/>
                    <path id="Path_1137" d="M152.109 485.089l.853-.968h.864l-1.071 1.165 1.157 1.5h-.878l-.858-1.146-.067.083v1.064h-.639v-4.443h.639z" class="cls-3" transform="translate(-142.749 -482.339)"/>
                    <path id="Path_1138" d="M160.7 485.491h-1l.514-1.472zm.215.646l.3.869h.732l-1.477-4.184h-.515l-1.525 4.184h.725l.318-.869z" class="cls-3" transform="translate(-145.966 -482.562)"/>
                    <path id="Path_1139" d="M166.685 486.028a.556.556 0 0 0-.38-.18.231.231 0 0 0-.245.222c0 .128.064.178.366.3.535.22.7.414.7.83a.918.918 0 0 1-.962.952 1.1 1.1 0 0 1-.863-.443l.332-.455a.717.717 0 0 0 .537.312.286.286 0 0 0 .3-.294c0-.153-.062-.2-.356-.332a1.36 1.36 0 0 1-.435-.231.665.665 0 0 1-.229-.547.8.8 0 0 1 .8-.854 1.088 1.088 0 0 1 .759.283z" class="cls-3" transform="translate(-149.138 -483.711)"/>
                    <path id="Path_1140" d="M170.1 487.06h-.639v-2.66h.639zm.066-3.731a.384.384 0 1 1-.385-.389.383.383 0 0 1 .383.389z" class="cls-3" transform="translate(-151.032 -482.617)"/>
                    <path id="Path_1141" d="M172.891 486a.754.754 0 1 1-.64.742.694.694 0 0 1 .64-.742zm.571-.583v.337a.893.893 0 0 0-.755-.429 1.267 1.267 0 0 0-1.118 1.407c0 .819.479 1.429 1.129 1.429a.866.866 0 0 0 .744-.431v.342h.637v-2.655z" class="cls-3" transform="translate(-152.046 -483.719)"/>
                </g>
            </g>
        </g>
    </g>
</svg>
