<svg xmlns="http://www.w3.org/2000/svg" width="53" height="54" viewBox="0 0 53 54">
    <defs>
        <style>
            .cls-2{fill:#0061ad}
        </style>
    </defs>
    <g id="Group_3256" transform="translate(-.473)">
        <g id="Rectangle_50" fill="#fff" stroke="#fff" transform="translate(.473)">
            <rect width="53" height="54" stroke="none" rx="10"/>
            <rect width="52" height="53" x=".5" y=".5" fill="none" rx="9.5"/>
        </g>
        <g id="Group_251" transform="translate(8.473 16.608)">
            <g id="Group_249" transform="translate(0 18.557)">
                <path id="Path_1145" d="M358.634 425.587h.607a.683.683 0 0 1 .439.113.356.356 0 0 1 .13.291.407.407 0 0 1-.13.32.732.732 0 0 1-.449.107h-.6zm-1.4 3.488h2.388c.1 0 .308-.021.62-.056a1.507 1.507 0 0 0 .523-.144 1.149 1.149 0 0 0 .445-.432 1.162 1.162 0 0 0 .161-.608 1.045 1.045 0 0 0-.226-.7 1.283 1.283 0 0 0-.711-.392 1.117 1.117 0 0 0 .48-.294.952.952 0 0 0 .251-.669.989.989 0 0 0-.349-.768 1.41 1.41 0 0 0-.992-.318h-2.59zm1.4-1.829h.7a.819.819 0 0 1 .5.124.369.369 0 0 1 .148.31.41.41 0 0 1-.148.332.824.824 0 0 1-.5.116h-.7z" class="cls-2" transform="translate(-357.237 -424.7)"/>
                <path id="Path_1146" d="M364.746 425.582h.6a.87.87 0 0 1 .512.113.394.394 0 0 1 .133.329.372.372 0 0 1-.084.249.343.343 0 0 1-.227.139 2.434 2.434 0 0 1-.361.06h-.577zm0 3.493V427.3h.112a.578.578 0 0 1 .343.1.977.977 0 0 1 .249.337l.733 1.338h1.57l-.674-1.266a1.87 1.87 0 0 0-.2-.272.923.923 0 0 0-.574-.4 1.67 1.67 0 0 0 .488-.171 1.279 1.279 0 0 0 .437-.427 1.185 1.185 0 0 0 .158-.625 1.17 1.17 0 0 0-.207-.709 1.06 1.06 0 0 0-.548-.4 3.5 3.5 0 0 0-.98-.107h-2.308v4.375z" class="cls-2" transform="translate(-358.825 -424.7)"/>
                <path id="Path_1147" d="M371.085 427.41l.488-1.579.484 1.579zm1.491 1.665h1.452l-1.671-4.375h-1.528l-1.685 4.375h1.419l.224-.722h1.569z" class="cls-2" transform="translate(-360.331 -424.7)"/>
                <path id="Path_1148" d="M378.714 427.273l1.221.344a2.169 2.169 0 0 1-.389.81 1.691 1.691 0 0 1-.651.485 2.483 2.483 0 0 1-.991.164 2.983 2.983 0 0 1-1.2-.2 1.828 1.828 0 0 1-.8-.708 2.233 2.233 0 0 1-.339-1.286 2.126 2.126 0 0 1 .593-1.613 2.316 2.316 0 0 1 1.67-.567 2.37 2.37 0 0 1 1.334.328 1.9 1.9 0 0 1 .718 1l-1.226.255a.9.9 0 0 0-.135-.287.82.82 0 0 0-.281-.229.884.884 0 0 0-1.093.276 1.41 1.41 0 0 0-.192.833 1.482 1.482 0 0 0 .232.96.785.785 0 0 0 .633.26.8.8 0 0 0 .6-.21 1.2 1.2 0 0 0 .292-.608" class="cls-2" transform="translate(-362.001 -424.7)"/>
                <path id="Path_1149" d="M384.877 425.587h.611a.7.7 0 0 1 .443.113.355.355 0 0 1 .124.291.407.407 0 0 1-.124.32.739.739 0 0 1-.45.107h-.6zm-1.4 3.488h2.391c.1 0 .309-.021.621-.056a1.517 1.517 0 0 0 .524-.144 1.136 1.136 0 0 0 .442-.432 1.149 1.149 0 0 0 .162-.608 1.054 1.054 0 0 0-.229-.7 1.245 1.245 0 0 0-.708-.392 1.091 1.091 0 0 0 .483-.294.966.966 0 0 0 .247-.669.988.988 0 0 0-.348-.768 1.4 1.4 0 0 0-1-.318h-2.582zm1.4-1.829h.7a.837.837 0 0 1 .513.124.368.368 0 0 1 .144.31.408.408 0 0 1-.145.332.83.83 0 0 1-.5.116h-.708z" class="cls-2" transform="translate(-364.057 -424.7)"/>
                <path id="Path_1150" d="M390.735 427.41l.49-1.579.491 1.579zm1.5 1.665h1.448l-1.673-4.375h-1.529l-1.681 4.375h1.417l.224-.722H392z" class="cls-2" transform="translate(-365.439 -424.7)"/>
                <path id="Path_1151" d="M395.5 424.7h1.289l1.691 2.421V424.7h1.309v4.375h-1.309l-1.68-2.4v2.4h-1.3z" class="cls-2" transform="translate(-367.179 -424.7)"/>
                <path id="Path_1152" d="M402.047 424.7h1.382v1.656l1.453-1.656h1.844l-1.638 1.651 1.712 2.724h-1.708l-.943-1.781-.721.726v1.055h-1.382z" class="cls-2" transform="translate(-368.882 -424.7)"/>
            </g>
            <g id="Group_250" transform="translate(10.092 -2.608)">
                <path id="Path_1153" d="M385.93 403.8c-2.752 4.14-6.769 9.629-14.236 9.188v-13.36h16.754s-.976 1.837-2.519 4.171" class="cls-2" transform="translate(-371.694 -399.627)"/>
                <path id="Path_1154" fill="#e19611" d="M371.694 414.04v2.833h17.188V399.9s-5.51 15.222-17.188 14.136" transform="translate(-371.694 -399.683)"/>
                <path id="Path_1155" fill="#0071ba" d="M377.935 405.371a4.179 4.179 0 0 0-1.168 8.2 13.43 13.43 0 0 0 5.3-3.27 3.115 3.115 0 0 0 .08-.75 4.183 4.183 0 0 0-4.213-4.178" transform="translate(-372.11 -400.796)"/>
                <path id="Path_1156" fill="#4989c6" d="M381.353 409.814a3.151 3.151 0 1 1-3.151-3.138 3.129 3.129 0 0 1 3.151 3.138" transform="translate(-372.377 -401.061)"/>
                <path id="Path_1157" fill="#7ba6d7" d="M380.59 410.084a2.11 2.11 0 1 1-2.119-2.084 2.1 2.1 0 0 1 2.119 2.084" transform="translate(-372.646 -401.331)"/>
                <path id="Path_1158" fill="#b8ccea" d="M379.787 410.35a1.051 1.051 0 1 1-1.049-1.039 1.052 1.052 0 0 1 1.049 1.039" transform="translate(-372.913 -401.598)"/>
            </g>
        </g>
    </g>
</svg>
