<svg xmlns="http://www.w3.org/2000/svg" xmlns:xlink="http://www.w3.org/1999/xlink" width="54" height="54" viewBox="0 0 54 54">
    <defs>
        <radialGradient id="radial-gradient" cx="1.018" cy=".668" r="2.125" gradientTransform="matrix(.879 0 0 1 .061 0)" gradientUnits="objectBoundingBox">
            <stop offset="0" stop-color="#e83e2e"/>
            <stop offset=".234" stop-color="#e9482f"/>
            <stop offset=".684" stop-color="#fdc60b"/>
        </radialGradient>
        <radialGradient id="radial-gradient-2" cx=".003" cy=".656" r="2.09" gradientTransform="matrix(.908 0 0 1 .046 0)" xlink:href="#radial-gradient"/>
        <style>
            .cls-2{fill:#ffc10e}.cls-4{fill:#f89c27}.cls-6{fill:#f58528}.cls-7{fill:#f16a22}.cls-8{fill:#f47f28}.cls-10{fill:#77787b}
        </style>
    </defs>
    <g id="Group_3269" transform="translate(-6541 92)">
        <g id="Rectangle_633" fill="#fff" stroke="#fff" transform="translate(6541 -92)">
            <rect width="54" height="54" stroke="none" rx="10"/>
            <rect width="53" height="53" x=".5" y=".5" fill="none" rx="9.5"/>
        </g>
        <g id="Group_3254" transform="translate(2 2.15)">
            <g id="XMLID_346_" transform="translate(6546.9 -116.15)">
                <path id="XMLID_393_" d="M18.518 48.617a15.849 15.849 0 0 1-9.746-8.96A23.406 23.406 0 0 0 6.1 39.5c3.3 9.746 13.047 9.432 13.047 9.432l-.629-.314z" class="cls-2" transform="translate(0 3.718)"/>
                <path id="XMLID_392_" d="M24.618 39.671c-1.415 3.3-4.244 7.074-10.218 9.275 0 0 9.746.314 13.047-9.432a9.512 9.512 0 0 0-2.829.157z" class="cls-2" transform="translate(4.747 3.703)"/>
                <path id="XMLID_391_" d="M13.515 41.931a14.12 14.12 0 0 1 .943-4.873 13.485 13.485 0 0 0-3.615-3.458 18 18 0 0 0-.943 5.03 10.045 10.045 0 0 1 3.615 3.301z" class="cls-2" transform="translate(2.173 .343)"/>
                <path id="XMLID_390_" d="M20.459 38.473a17.67 17.67 0 0 0-.943-4.873 13.485 13.485 0 0 0-3.616 3.458 14.918 14.918 0 0 1 .943 4.873 12.408 12.408 0 0 1 3.616-3.458z" class="cls-2" transform="translate(5.605 .343)"/>
                <path id="XMLID_389_" d="M18.271 43.365a11.879 11.879 0 0 1 4.017-1.306 18.054 18.054 0 0 0 1.257-6.759 14.869 14.869 0 0 0-4.559 2.2 13.574 13.574 0 0 1-.715 5.865z" class="cls-2" transform="translate(6.921 1.316)"/>
                <path id="XMLID_372_" d="M11.561 37.5A14.869 14.869 0 0 0 7 35.3a17.083 17.083 0 0 0 1.258 6.6 12.732 12.732 0 0 1 4.242 1.26 12.606 12.606 0 0 1-.939-5.66z" class="cls-2" transform="translate(.513 1.316)"/>
                <path id="XMLID_371_" fill="url(#radial-gradient)" d="M11.944 40.858A11.77 11.77 0 0 0 7.7 39.6a15.862 15.862 0 0 0 9.746 8.96l.629.157a17.139 17.139 0 0 1-6.131-7.859z" opacity="0.6" transform="translate(.915 3.775)"/>
                <path id="XMLID_370_" d="M11.944 40.885A11.585 11.585 0 0 0 7.7 39.6a16.013 16.013 0 0 0 9.746 9.153l.629.161a17.469 17.469 0 0 1-6.131-8.029z" class="cls-4" transform="translate(.915 3.578)"/>
                <path id="XMLID_369_" fill="url(#radial-gradient-2)" d="M24.618 39.6a11.054 11.054 0 0 0-4.087 1.258 17.461 17.461 0 0 1-6.131 8.017c5.816-2.201 8.8-5.975 10.218-9.275z" opacity="0.6" transform="translate(4.747 3.775)"/>
                <path id="XMLID_368_" d="M24.618 39.6a11.054 11.054 0 0 0-4.087 1.258 17.71 17.71 0 0 1-6.191 8.052 17.417 17.417 0 0 0 10.278-9.31z" class="cls-4" transform="translate(4.747 3.775)"/>
                <path id="XMLID_367_" d="M10.7 42.516a10.816 10.816 0 0 1 3.458 2.672 11.392 11.392 0 0 1-.629-5.03A18.371 18.371 0 0 0 9.915 36.7a16.092 16.092 0 0 0 .785 5.816z" class="cls-6" transform="translate(2.159 2.116)"/>
                <path id="XMLID_366_" d="M10.4 40.4a17.461 17.461 0 0 0 6.131 8.017 24.211 24.211 0 0 1-2.672-5.345A7.961 7.961 0 0 0 10.4 40.4z" class="cls-7" transform="translate(2.459 4.232)"/>
                <path id="XMLID_365_" d="M16.729 40.058a19.167 19.167 0 0 1-.629 5.03 10.816 10.816 0 0 1 3.458-2.672A16.039 16.039 0 0 0 20.5 36.6a15.692 15.692 0 0 0-3.771 3.458z" class="cls-6" transform="translate(5.72 2.059)"/>
                <path id="XMLID_364_" d="M20.626 40.4a11.146 11.146 0 0 0-3.569 2.725 18.569 18.569 0 0 1-2.634 5.455 17.16 17.16 0 0 0 6.203-8.18z" class="cls-7" transform="translate(4.69 4.075)"/>
                <path id="XMLID_363_" d="M17.616 37.4a13.4 13.4 0 0 0-2.358-4.4 16 16 0 0 0-2.358 4.4 14.532 14.532 0 0 1 2.358 4.4 10.659 10.659 0 0 1 2.358-4.4z" class="cls-2" transform="translate(3.889)"/>
                <path id="XMLID_362_" d="M15.186 45.6a14.07 14.07 0 0 1 2.515-4.87 15.85 15.85 0 0 0-.943-5.033 15.17 15.17 0 0 0-2.358 4.549 19.1 19.1 0 0 1 .786 5.354z" class="cls-8" transform="translate(4.747 1.544)"/>
                <path id="XMLID_172_" fill="#f05a22" d="M19.017 38.972a16.663 16.663 0 0 0-2.517 4.715 14.441 14.441 0 0 0-.838-5.3 18.672 18.672 0 0 0-1.048 5.3 13.478 13.478 0 0 0-2.514-4.715A19.991 19.991 0 0 0 12.729 44a21.184 21.184 0 0 0 2.889 5.6 19.846 19.846 0 0 0 2.713-5.514 11.852 11.852 0 0 0 .686-5.114z" transform="translate(3.432 3.146)"/>
                <path id="XMLID_357_" d="M14.766 45.546a12.635 12.635 0 0 1 .986-5.272 19.213 19.213 0 0 0-2.466-4.474 14.788 14.788 0 0 0-.986 4.953 22.063 22.063 0 0 1 2.466 4.793z" class="cls-8" transform="translate(3.395 1.444)"/>
            </g>
            <g id="XMLID_132_" transform="translate(6525.9 -94.779)">
                <path id="XMLID_354_" d="M29.149 37.479c0 2.492-.721 3.279-2.623 3.279-.918 0-1.7-.066-2.426-.066v-6.426c.721-.066 1.443-.066 2.426-.066 1.902 0 2.623.721 2.623 3.279zm-1.246 0c0-1.771-.328-2.3-1.377-2.3H25.28v4.59h1.246c1.049.005 1.374-.52 1.374-2.29z" class="cls-10"/>
                <path id="XMLID_352_" d="M39.885 38.343v3.41h-1.114v-3.082c0-.459-.131-.656-.59-.656a2.112 2.112 0 0 0-1.246.525v3.213H35.82v-3.082c0-.525-.2-.656-.59-.656-.328 0-.59.131-1.246.525v3.213H33v-4.525h.918l.066.656a2.56 2.56 0 0 1 1.771-.787 1.147 1.147 0 0 1 1.18.787 2.539 2.539 0 0 1 1.7-.787c.791-.066 1.25.393 1.25 1.246z" class="cls-10" transform="translate(-3.064 -.995)"/>
                <path id="XMLID_349_" d="M49.059 39.426c0 1.771-.59 2.426-2.23 2.426S44.6 41.2 44.6 39.426 45.19 37 46.83 37c1.57 0 2.229.721 2.229 2.426zm-3.344 0c0 1.18.262 1.508 1.049 1.508s1.049-.328 1.049-1.508-.262-1.508-1.049-1.508-1.049.328-1.049 1.508z" class="cls-10" transform="translate(-7.057 -.964)"/>
                <path id="XMLID_347_" d="M56.7 38.343v3.41h-1.118v-3.082c0-.525-.131-.656-.459-.656a2.957 2.957 0 0 0-1.508.59v3.148H52.5v-4.525h.918l.066.656a3.15 3.15 0 0 1 1.967-.787c.787-.066 1.249.393 1.249 1.246z" class="cls-10" transform="translate(-9.777 -.995)"/>
                <path id="XMLID_373_" d="M63.966 40.8l.131.721a4.469 4.469 0 0 1-1.9.328c-1.639 0-2.3-.656-2.3-2.426 0-1.836.656-2.426 2.23-2.426 1.508 0 2.1.525 2.1 1.574a1.158 1.158 0 0 1-1.246 1.311h-1.835c.066.852.459.984 1.246.984a6.8 6.8 0 0 0 1.574-.066zm-2.886-1.7h1.574c.393 0 .393-.262.393-.525 0-.459-.2-.656-.918-.656-.786-.001-1.049.261-1.049 1.181z" class="cls-10" transform="translate(-12.324 -.964)"/>
                <path id="XMLID_376_" d="M69.713 41.956a2.353 2.353 0 0 1-2.3 1.771L67.287 43a1.708 1.708 0 0 0 1.313-1.044l.066-.131h-.2a.443.443 0 0 1-.393-.262L66.5 37.3h1.18l.984 3.148a1.915 1.915 0 0 1 .131.59h.131a6.19 6.19 0 0 1 .2-.59l.984-3.148h1.18z" class="cls-10" transform="translate(-14.597 -1.067)"/>
            </g>
        </g>
    </g>
</svg>
