<svg xmlns="http://www.w3.org/2000/svg" width="54" height="54" viewBox="0 0 54 54">
    <defs>
        <style>
            .cls-2{fill:none}
        </style>
    </defs>
    <g id="Group_2956" transform="translate(.031 -.231)">
        <g id="Rectangle_608" fill="#fff" stroke="#fff" transform="translate(-.031 .231)">
            <rect width="54" height="54" stroke="none" rx="10"/>
            <rect width="53" height="53" x=".5" y=".5" class="cls-2" rx="9.5"/>
        </g>
        <g id="Group_2945" transform="translate(7.062 11.191)">
            <path id="Rectangle_42" d="M0 0H39.967V32.783H0z" class="cls-2"/>
            <g id="Group_213" transform="translate(4.126 4.126)">
                <g id="Group_211" transform="translate(1.642 20.883)">
                    <path id="Path_1023" fill="#040505" d="M135.02 430.318v-1.634a.968.968 0 0 0-1.02-1.034 1.008 1.008 0 0 0-.915.463.958.958 0 0 0-.86-.463.86.86 0 0 0-.762.386v-.321h-.566v2.6h.571v-1.443a.609.609 0 0 1 .637-.692c.376 0 .566.245.566.686v1.448h.571v-1.443a.614.614 0 0 1 .637-.692c.386 0 .571.245.571.686v1.448zm8.46-2.6h-.925v-.789h-.571v.789h-.528v.517h.528v1.187c0 .6.234.963.9.963a1.331 1.331 0 0 0 .708-.2l-.163-.484a1.048 1.048 0 0 1-.5.147c-.283 0-.375-.175-.375-.436v-1.176h.925zm4.829-.066a.766.766 0 0 0-.686.381v-.316h-.561v2.6h.566v-1.459c0-.43.185-.67.555-.67a.92.92 0 0 1 .354.066l.174-.533a1.205 1.205 0 0 0-.4-.071zm-7.3.272a1.942 1.942 0 0 0-1.061-.272c-.659 0-1.084.316-1.084.833 0 .425.316.686.9.768l.267.039c.31.043.457.125.457.272 0 .2-.207.316-.593.316a1.388 1.388 0 0 1-.866-.272l-.266.441a1.879 1.879 0 0 0 1.127.337c.751 0 1.187-.354 1.187-.849 0-.457-.343-.7-.909-.779l-.266-.038c-.245-.033-.441-.081-.441-.256 0-.19.185-.3.5-.3a1.681 1.681 0 0 1 .811.223zm15.168-.272a.767.767 0 0 0-.686.381v-.316h-.56v2.6h.566v-1.459c0-.43.185-.67.555-.67a.917.917 0 0 1 .354.066l.175-.533a1.205 1.205 0 0 0-.4-.071zm-7.3 1.367a1.314 1.314 0 0 0 1.388 1.366 1.359 1.359 0 0 0 .936-.31l-.272-.457a1.142 1.142 0 0 1-.681.234.835.835 0 0 1 0-1.666 1.148 1.148 0 0 1 .681.234l.272-.457a1.363 1.363 0 0 0-.936-.31 1.315 1.315 0 0 0-1.388 1.367zm5.3 0v-1.3h-.566v.316a.987.987 0 0 0-.822-.381 1.368 1.368 0 0 0 0 2.733.987.987 0 0 0 .822-.381v.316h.566zm-2.107 0a.788.788 0 1 1 .789.833.781.781 0 0 1-.789-.833zm-6.833-1.367a1.368 1.368 0 0 0 .038 2.733 1.58 1.58 0 0 0 1.067-.365l-.278-.419a1.238 1.238 0 0 1-.757.272.723.723 0 0 1-.779-.637h1.933c.005-.07.01-.141.01-.217a1.247 1.247 0 0 0-1.236-1.367zm-.011.507a.646.646 0 0 1 .659.631h-1.35a.671.671 0 0 1 .692-.631zm14.2.86v-2.349h-.566v1.361a.987.987 0 0 0-.822-.381 1.368 1.368 0 0 0 0 2.733.987.987 0 0 0 .822-.381v.316h.566zm-2.107 0a.788.788 0 1 1 .789.833.781.781 0 0 1-.789-.833zm-19.12 0v-1.3h-.566v.316a.987.987 0 0 0-.822-.381 1.368 1.368 0 0 0 0 2.733.987.987 0 0 0 .822-.381v.316h.566zm-2.107 0a.788.788 0 1 1 .789.833.781.781 0 0 1-.781-.836zm24.278.924a.258.258 0 0 1 .1.02.281.281 0 0 1 .084.056.263.263 0 0 1 .056.082.252.252 0 0 1 0 .2.262.262 0 0 1-.056.082.268.268 0 0 1-.084.056.257.257 0 0 1-.1.021.271.271 0 0 1-.1-.021.262.262 0 0 1-.139-.138.251.251 0 0 1 0-.2.251.251 0 0 1 .056-.082.261.261 0 0 1 .084-.056.271.271 0 0 1 .11-.023zm0 .46a.2.2 0 0 0 .078-.016.219.219 0 0 0 .063-.043.2.2 0 0 0 .043-.064.2.2 0 0 0 .016-.078.2.2 0 0 0-.016-.078.2.2 0 0 0-.106-.107.2.2 0 0 0-.078-.015.2.2 0 0 0-.08.015.2.2 0 0 0-.064.043.2.2 0 0 0-.043.064.2.2 0 0 0-.016.078.2.2 0 0 0 .016.078.2.2 0 0 0 .043.064.213.213 0 0 0 .064.043.2.2 0 0 0 .091.013zm.015-.322a.111.111 0 0 1 .072.02.071.071 0 0 1 .025.056.065.065 0 0 1-.02.049.092.092 0 0 1-.057.024l.078.091h-.061l-.073-.09h-.023v.09h-.051v-.24zm-.059.045v.064h.059a.058.058 0 0 0 .032-.008.027.027 0 0 0 .012-.025.025.025 0 0 0-.012-.023.053.053 0 0 0-.032-.008z" transform="translate(-130.893 -426.67)"/>
                </g>
                <g id="Group_212">
                    <path id="Rectangle_43" fill="#ed4715" d="M0 0H8.576V15.411H0z" transform="translate(11.57 2.095)"/>
                    <path id="Path_1024" fill="#e1001a" d="M140.806 408.48a9.784 9.784 0 0 1 3.744-7.706 9.8 9.8 0 1 0 0 15.412 9.783 9.783 0 0 1-3.744-7.706z" transform="translate(-128.692 -398.679)"/>
                    <path id="Path_1025" fill="#f78a0a" d="M165.8 408.48a9.8 9.8 0 0 1-15.857 7.705 9.8 9.8 0 0 0 0-15.412 9.8 9.8 0 0 1 15.857 7.707zm-.935 6.073v-.316H165v-.064h-.325v.064h.128v.316zm.629 0v-.38h-.1l-.114.262-.114-.262h-.1v.38h.07v-.286l.107.247h.073l.107-.248v.287z" transform="translate(-134.089 -398.679)"/>
                </g>
            </g>
        </g>
    </g>
</svg>
