<svg xmlns="http://www.w3.org/2000/svg" width="54" height="54" viewBox="0 0 54 54">
    <defs>
        <style>
            .cls-2{fill:#125eaa}
        </style>
    </defs>
    <g id="Group_3267" transform="translate(-6400 92)">
        <g id="Rectangle_631" fill="#fff" stroke="#fff" transform="translate(6400 -92)">
            <rect width="54" height="54" stroke="none" rx="10"/>
            <rect width="53" height="53" x=".5" y=".5" fill="none" rx="9.5"/>
        </g>
        <g id="surecash" transform="translate(6268.572 294.598)">
            <path id="Path_2731" d="M189.635-363.46c-.347.072-.628.137-.635.137s-.007 1.786-.007 3.965v3.965h1.282l.007-1.858.007-1.858.124-.249a1.273 1.273 0 0 1 1.263-.746 1.133 1.133 0 0 1 1.073.935 12.147 12.147 0 0 1 .059 1.969l.013 1.812.628-.007.635-.007.007-1.59c.013-2.172-.026-2.578-.288-3.108a1.753 1.753 0 0 0-1.557-.994 1.813 1.813 0 0 0-.994.209 1.852 1.852 0 0 0-.7.569c-.092.124-.124.144-.183.137l-.078-.007-.013-1.708-.013-1.707z" class="cls-2" transform="translate(-16.771)"/>
            <path id="Path_2732" d="M137.537-363.529a2.727 2.727 0 0 0-1.721.988 1.935 1.935 0 0 0-.386 1.328 1.733 1.733 0 0 0 .608 1.328 4.108 4.108 0 0 0 1.472.844c.89.347 1.178.543 1.361.916a.922.922 0 0 1 .1.576.991.991 0 0 1-.275.857 1.456 1.456 0 0 1-1.171.379 3.518 3.518 0 0 1-1.564-.347l-.242-.111-.039.151c-.026.085-.092.321-.144.523l-.1.373.1.052a4.744 4.744 0 0 0 2.3.386c1.668-.144 2.663-1.021 2.663-2.355a1.934 1.934 0 0 0-.53-1.42 4.033 4.033 0 0 0-1.629-.968 3.57 3.57 0 0 1-1.269-.7.875.875 0 0 1-.314-.733 1.137 1.137 0 0 1 1.014-1.047 3.628 3.628 0 0 1 1.9.236.767.767 0 0 0 .17.065c0-.007.072-.236.157-.5.131-.432.144-.5.1-.53a4.185 4.185 0 0 0-.8-.249 7.3 7.3 0 0 0-1.761-.042z" class="cls-2" transform="translate(0 -.01)"/>
            <path id="Path_2733" d="M168.734-363.384a3.958 3.958 0 0 0-2.924 1.681 4.631 4.631 0 0 0-.589 3.474c.451 2.12 2.309 3.186 4.939 2.826a5.517 5.517 0 0 0 .883-.2c.013-.013-.137-.72-.15-.739a1.158 1.158 0 0 0-.255.046 4.178 4.178 0 0 1-1.217.137 2.582 2.582 0 0 1-1.315-.249 1.454 1.454 0 0 1-.5-.373 1.59 1.59 0 0 1-.386-.53 4.243 4.243 0 0 1-.353-2.022 4.526 4.526 0 0 1 .321-1.95 2.287 2.287 0 0 1 .864-1 2.881 2.881 0 0 1 .981-.3 4.578 4.578 0 0 1 1.655.164l.209.065.1-.379a2.417 2.417 0 0 0 .092-.4 2.954 2.954 0 0 0-.7-.2 11.967 11.967 0 0 0-1.655-.051z" class="cls-2" transform="translate(-9.294 -.063)"/>
            <path id="Path_2734" d="M154.414-360.242a1.759 1.759 0 0 0-1.3 1.086c-.059.151-.072.164-.17.17s-.1.007-.118-.085c-.007-.052-.02-.3-.033-.55a4.13 4.13 0 0 0-.026-.458c-.007-.007-.255.052-.556.131l-.55.137.02.347c.013.2.02 1.426.02 2.741v2.388h1.308l.013-1.668a8.6 8.6 0 0 1 .072-1.9 1.506 1.506 0 0 1 .432-.746 1.364 1.364 0 0 1 1.066-.386h.288v-.589c0-.589 0-.6-.065-.608a.991.991 0 0 0-.401-.01z" class="cls-2" transform="translate(-5.082 -1.047)"/>
            <path id="Path_2735" d="M158.823-360.233a2.671 2.671 0 0 0-2.218 1.871 3.8 3.8 0 0 0-.092 2.146 3.457 3.457 0 0 0 .5.994 3.246 3.246 0 0 0 2.924.962 3.764 3.764 0 0 0 1.446-.334 5.723 5.723 0 0 0-.177-.778.468.468 0 0 0-.216.033 4.361 4.361 0 0 1-1.276.157 2.272 2.272 0 0 1-.746-.065 1.618 1.618 0 0 1-1.315-1.459l-.02-.209h2.028a9.811 9.811 0 0 0 2.041-.046 5.511 5.511 0 0 0-.026-1.164 2.355 2.355 0 0 0-1.793-2.067 4.737 4.737 0 0 0-1.06-.041zm.857.968a1.357 1.357 0 0 1 .785 1.014c.033.137.033.183.007.2s-.569.085-1.217.17-1.223.164-1.276.177l-.092.02v-.183a2.057 2.057 0 0 1 .19-.759 1.319 1.319 0 0 1 1.603-.639z" class="cls-2" transform="translate(-6.567 -1.049)"/>
            <path id="Path_2736" d="M176.259-360.229a4.377 4.377 0 0 0-1.393.373l-.15.078.111.379c.065.209.118.386.124.386a1.674 1.674 0 0 0 .222-.092 2.836 2.836 0 0 1 2.1-.131 1.043 1.043 0 0 1 .445.445 1.614 1.614 0 0 1 .131.628l-.007.1-.464.02c-1.806.079-2.833.654-3.068 1.708a2.111 2.111 0 0 0 .046.994 1.7 1.7 0 0 0 1.694 1.119 2.147 2.147 0 0 0 1.6-.628c.111-.118.17-.157.236-.164.092 0 .085-.013.15.432l.033.242h1.165l-.02-.137c-.013-.072-.033-.988-.046-2.021-.026-2.041-.026-2.041-.2-2.486a1.91 1.91 0 0 0-.491-.72 2.728 2.728 0 0 0-2.218-.525zm1.511 3.579c0 .641-.033.752-.294 1.034a1.183 1.183 0 0 1-.661.386.878.878 0 0 1-1.066-.438 1.1 1.1 0 0 1 0-.765c.2-.458.831-.72 1.747-.733l.275-.007v.523z" class="cls-2" transform="translate(-12.162 -1.047)"/>
            <path id="Path_2737" d="M184.08-360.221a1.96 1.96 0 0 0-1.524 1.014 1.494 1.494 0 0 0 .02 1.413 2.572 2.572 0 0 0 1.446.968c.582.222.8.366.942.628a.788.788 0 0 1-.007.654c-.249.438-.936.549-1.819.307a3 3 0 0 1-.451-.164.8.8 0 0 0-.2-.072c-.02.02-.249.87-.242.883s.092.039.183.079a4.183 4.183 0 0 0 2.512.15 1.644 1.644 0 0 0 1.348-1.609 1.471 1.471 0 0 0-.687-1.328 3.654 3.654 0 0 0-.883-.438c-.831-.314-1.079-.523-1.079-.922a.7.7 0 0 1 .438-.635.892.892 0 0 1 .536-.078 2.329 2.329 0 0 1 .981.2c.1.039.183.072.2.059s.236-.8.236-.831a.652.652 0 0 0-.2-.092 3.95 3.95 0 0 0-1.75-.186z" class="cls-2" transform="translate(-14.657 -1.048)"/>
            <path id="Path_2738" d="M147.111-358.193a10.689 10.689 0 0 1-.052 2.041 1.335 1.335 0 0 1-.406.615 1.246 1.246 0 0 1-.968.347c-.55-.026-.883-.334-1.073-.975a11.415 11.415 0 0 1-.059-2.022c-.007-1.014-.02-1.845-.033-1.845s-.307.065-.654.137l-.635.137v1.786a16.326 16.326 0 0 0 .046 2.048 1.886 1.886 0 0 0 1.25 1.655 1.667 1.667 0 0 0 .7.078 1.685 1.685 0 0 0 .7-.078 2.113 2.113 0 0 0 1.066-.785c.085-.131.131-.17.183-.17a.2.2 0 0 1 .085.02c.007.013.026.222.052.464l.039.445h1.138l-.02-.327c-.007-.183-.02-1.478-.02-2.885v-2.558h-1.341v1.871z" class="cls-2" transform="translate(-2.443 -1.106)"/>
            <path id="Path_2739" d="M197.318-353.51v.092h.406l.007.563.007.563.111.013.111.007v-1.138h.406v-.177h-1.047v.078z" class="cls-2" transform="translate(-19.377 -3.134)"/>
            <path id="Path_2740" d="M199.233-352.946v.654h.2v-.412a1.748 1.748 0 0 1 .02-.4c.007.007.079.19.157.406l.144.386h.19l.131-.386a3 3 0 0 1 .157-.406 1.622 1.622 0 0 1 .02.393v.412h.209v-1.308h-.255l-.17.478c-.092.255-.183.484-.19.5a2.358 2.358 0 0 1-.2-.478l-.17-.5h-.249v.661z" class="cls-2" transform="translate(-19.977 -3.128)"/>
        </g>
    </g>
</svg>
