<svg xmlns="http://www.w3.org/2000/svg" width="54" height="54" viewBox="0 0 54 54">
    <defs>
        <style>
            .cls-4{fill:#2d2f7c}.cls-5{fill:#ec1f27}
        </style>
    </defs>
    <g id="Group_3284" transform="translate(-6667 17)">
        <g id="Rectangle_640" fill="#fff" stroke="#fff" transform="translate(6667 -17)">
            <rect width="54" height="54" stroke="none" rx="10"/>
            <rect width="53" height="53" x=".5" y=".5" fill="none" rx="9.5"/>
        </g>
        <g id="tapnpay" transform="translate(6659 -25.4)">
            <path id="Path_2741" fill="#0066ac" d="M26.464 20.4a15.253 15.253 0 0 0-8.621 2.9 7.652 7.652 0 0 0-1.332 1.411 7.259 7.259 0 0 0-1.411 4v.47h1.959c3.527 0 31.976-.157 32.132-.157 1.019-.078 1.254-.078 1.724-.157q2.469-.353 2.821-1.881c0-.078.078-.549.078-.94a28.908 28.908 0 0 1 .392-2.9c0-.078 0-.078-.078-.078a2.365 2.365 0 0 0-.862.549 5.005 5.005 0 0 1-3.056 1.567c-.784.078-1.254 0-5.721-1.411-1.881-.549-3.292-1.019-4.389-1.254a49.24 49.24 0 0 0-10.423-1.959 22.065 22.065 0 0 0-3.213-.16z" transform="translate(-.022)"/>
            <path id="Path_2742" fill="#f36e35" d="M38.512 48.484c-7.837 0-15.518.078-17.085.078-3.135 0-3.37 0-4.232.235a2.679 2.679 0 0 0-2.116 1.8 5.664 5.664 0 0 0-.079 1.57V54.6h.157c.235 0 .47-.157.94-.47a4.5 4.5 0 0 1 1.881-1.019 4.529 4.529 0 0 1 2.508-.078c.549.157 1.332.392 2.743.862a78.462 78.462 0 0 0 9.483 2.586 38.8 38.8 0 0 0 10.972.705c4.859-.47 8.464-2.508 9.875-5.486a7.893 7.893 0 0 0 .705-2.978v-.235h-.705c-.47-.082-7.21-.082-15.047-.003z" transform="translate(0 -6.061)"/>
            <g id="Group_3209" transform="translate(15 31.999)">
                <path id="Path_2743" d="M15.078 35.692A2.418 2.418 0 0 1 15 36.4v.313h.078c.078 0 .078 0 .157-.235a.894.894 0 0 1 .235-.47c.235-.235.392-.313 1.254-.313h.627v2.43c0 2.194 0 2.43-.078 2.508-.078.157-.313.235-.627.235-.235 0-.235 0-.235.078s.078.078 1.489.078 1.489 0 1.489-.078-.078-.078-.235-.078c-.313 0-.47-.078-.549-.235-.078-.078-.078-.157-.078-2.508v-2.43h.705a1.86 1.86 0 0 1 1.176.235 1.263 1.263 0 0 1 .313.549c0 .157 0 .157.157.157.078 0 .078 0 .078-.078a3.032 3.032 0 0 0-.078-.705V35.3h-5.643z" class="cls-4" transform="translate(-15 -35.222)"/>
                <path id="Path_2744" d="M44.278 35.357c0 .078.078.078.235.078a.7.7 0 0 1 .627.313c.078.157.078.235.078 2.194 0 2.351 0 2.586-.157 2.743s-.313.157-.627.157c-.157 0-.235 0-.235.078s0 .078 1.489.078c1.411 0 1.489 0 1.489-.078s0-.078-.235-.078a.764.764 0 0 1-.705-.313c-.078-.157-.078-.235-.078-1.176v-1.018h.392a4.716 4.716 0 0 0 1.489 0 1.69 1.69 0 0 0 1.254-.862 1.476 1.476 0 0 0 .157-.627 1.007 1.007 0 0 0-.078-.549 2 2 0 0 0-1.254-.94 12.438 12.438 0 0 0-2.43-.157 4.927 4.927 0 0 0-1.411.157zm2.978.392a1.055 1.055 0 0 1 .705.392 1.23 1.23 0 0 1 0 1.724 1.446 1.446 0 0 1-1.332.313l-.392-.078v-2.351l.235-.078a2.666 2.666 0 0 1 .784.078z" class="cls-4" transform="translate(-21.315 -35.2)"/>
                <path id="Path_2745" d="M34.5 36.678s.157.47.392 1.019.392 1.019.392 1.019a.274.274 0 0 0 .157.078h.159l.235-1.019a9.378 9.378 0 0 0 .235-1.1c0-.078-.157-.078-.784-.078a2.169 2.169 0 0 0-.786.081z" class="cls-5" transform="translate(-19.218 -35.503)"/>
                <path id="Path_2746" d="M37.505 37.229a6.1 6.1 0 0 1-.705.235v.157c.078.078.078.078.157.078h.235c.157 0 .157 0 .235.078s.078.157.078 1.567 0 1.489-.078 1.646a.474.474 0 0 1-.47.235c-.157 0-.157 0-.157.078v.078h2.508V41.3c0-.078 0-.078-.235-.157a.474.474 0 0 1-.47-.235 11.023 11.023 0 0 1-.078-1.411V38.17l.157-.157c.47-.47 1.176-.549 1.411-.235.157.235.235.313.235 1.724s0 1.489-.157 1.646c-.078 0-.235.078-.313.078-.235 0-.235 0-.235.157v.078h2.351v-.078c0-.078 0-.078-.235-.157-.157 0-.235-.078-.313-.078-.157-.157-.157-.235-.157-1.567v-1.49c-.157-.705-.549-1.1-1.176-1.1a1.762 1.762 0 0 0-1.332.627l-.235.157v-.784h-.157c-.08-.075-.469.082-.864.238z" class="cls-5" transform="translate(-19.715 -35.584)"/>
                <path id="Path_2747" d="M23.8 37.594c-.784.078-1.332.47-1.332.94 0 .157 0 .235.078.313a.477.477 0 0 0 .627 0c.078-.078.078-.078.157-.392 0-.313 0-.313.157-.47a.857.857 0 0 1 .784-.157c.47.078.627.313.627.862v.235l-.317.075a15.425 15.425 0 0 0-1.489.549c-.313.157-.705.47-.705.705a.965.965 0 0 0 .549 1.176 1.007 1.007 0 0 0 .549.078 1.864 1.864 0 0 0 1.1-.392l.313-.157v.157c0 .313.235.47.549.47a1.088 1.088 0 0 0 .784-.392c.235-.157.235-.235.235-.313v-.157l-.235.157c-.235.157-.313.235-.47.078-.078-.078-.078-.157-.078-1.411v-1.327l-.078-.157a.612.612 0 0 0-.313-.313 3.7 3.7 0 0 0-1.492-.157zm1.1 2.43v.705l-.235.157q-.94.588-1.411 0a.592.592 0 0 1-.078-.627 1.811 1.811 0 0 1 .549-.549 3.73 3.73 0 0 1 1.1-.392c.07 0 .07.082.07.706z" class="cls-4" transform="translate(-16.587 -35.713)"/>
                <path id="Path_2748" d="M30.521 37.578a1.742 1.742 0 0 0-1.019.627l-.157.235v-.94h-.078c-.078 0-1.489.47-1.489.47v.078c0 .078.078.078.313.078s.313 0 .392.078c.078.157.157.47.078 2.665 0 1.959 0 2.038-.078 2.116a.61.61 0 0 1-.549.235c-.157 0-.235 0-.235.078s0 .078 1.254.078c1.176 0 1.254 0 1.254-.078s0-.078-.157-.078a1.133 1.133 0 0 1-.549-.157c-.078-.078-.078-.078-.078-.94v-.783l.235.157c.235.157.313.157.705.157h.627a2.254 2.254 0 0 0 1.567-1.567 2.154 2.154 0 0 0-.157-1.567 2.023 2.023 0 0 0-.705-.705 1.614 1.614 0 0 0-1.174-.237zm.313.705a1.73 1.73 0 0 1 .784 1.567 1.655 1.655 0 0 1-.47 1.254 1.212 1.212 0 0 1-1.646-.078.594.594 0 0 1-.157-.313 10.816 10.816 0 0 1-.078-1.1v-.94l.235-.235a1.306 1.306 0 0 1 .862-.313 3.082 3.082 0 0 0 .471.159z" class="cls-4" transform="translate(-17.747 -35.697)"/>
                <path id="Path_2749" d="M53.373 37.578c-.784.078-1.411.549-1.332 1.019.078.313.549.47.705.235.078-.078.078-.157.078-.392 0-.313.078-.47.235-.549a1.048 1.048 0 0 1 .705-.078c.392.078.627.392.627.94v.157l-.627.235c-1.1.392-1.724.705-1.881 1.1a1.329 1.329 0 0 0 0 .784.829.829 0 0 0 .549.47 1.91 1.91 0 0 0 .94 0 1.347 1.347 0 0 0 .549-.313l.392-.235.078.157c.078.313.235.392.549.392a1.058 1.058 0 0 0 .784-.392c.235-.157.235-.235.235-.313v-.157a.97.97 0 0 1-.235.157c-.235.157-.392.235-.47.078-.078-.078-.078-.235-.078-1.411 0-1.489 0-1.411-.313-1.646a1.843 1.843 0 0 0-.94-.313h-.393c.156.075 0 .075-.157.075zm1.019 3.213a2.9 2.9 0 0 1-.862.392.711.711 0 0 1-.627-1.176c.157-.235.392-.313 1.019-.549l.47-.157v.705c.078.707.078.707 0 .786z" class="cls-4" transform="translate(-22.965 -35.697)"/>
                <path id="Path_2750" d="M57.4 37.757c0 .078.078.078.157.078.313.078.47.313 1.489 2.038l.862 1.489-.235.47c-.235.549-.47.705-.705.784a.852.852 0 0 1-.392-.078.9.9 0 0 0-.94.078.369.369 0 0 0 .078.47c.392.392 1.411.157 1.881-.549.078-.157.627-1.176 1.176-2.351.705-1.411 1.1-2.194 1.176-2.273a.407.407 0 0 1 .313-.157c.157 0 .157-.078.157-.078 0-.078-.078-.078-.784-.078s-.784 0-.784.078 0 .078.157.078a.288.288 0 0 1 .235.078c.078.078.078.078.078.235s-1.1 2.351-1.1 2.351-1.254-2.038-1.254-2.194.157-.313.47-.313c.157 0 .157 0 .157-.078s0-.078-1.1-.078z" class="cls-4" transform="translate(-24.17 -35.719)"/>
            </g>
        </g>
    </g>
</svg>
