<svg xmlns="http://www.w3.org/2000/svg" width="54" height="54" viewBox="0 0 54 54">
    <defs>
        <style>
            .cls-3{fill:#fff}.cls-4{fill:#00793e}.cls-5{fill:#262626}.cls-6{fill:none;stroke:#989a9d;stroke-miterlimit:10;stroke-width:.25px}
        </style>
    </defs>
    <g id="Group_3278" transform="translate(-5722 17)">
        <g id="Rectangle_72" fill="#fff" stroke="#fff" transform="translate(5722 -17)">
            <rect width="54" height="54" stroke="none" rx="10"/>
            <rect width="53" height="53" x=".5" y=".5" fill="none" rx="9.5"/>
        </g>
        <g id="tcash" transform="translate(5714.1 -24)">
            <g id="Group_3211" transform="translate(23.904 16)">
                <path id="Path_2751" fill="#ec1c24" d="M40.239 16H32.4a6.822 6.822 0 0 0-6.8 6.8v8.515a6.822 6.822 0 0 0 6.8 6.8h7.17a7.979 7.979 0 0 1-4.033-.9A8.5 8.5 0 0 1 31.65 33.4a7.244 7.244 0 0 1-.672-3.809v-.075s.224 4.108 7.17 4.108h2.315a5.164 5.164 0 0 1 4.705 2.315 6.538 6.538 0 0 0 1.867-4.705V22.8a6.822 6.822 0 0 0-6.796-6.8z" transform="translate(-25.6 -16)"/>
                <g id="Group_3210" transform="translate(2.166 3.734)">
                    <path id="Path_2752" d="M36.865 34a4.472 4.472 0 0 1-.971-2.017c0-.822.075-4.705-.075-6.2 0-.3-.075-.523-.075-.747A6.083 6.083 0 0 0 34.7 22.27l-.075-.075a2.85 2.85 0 0 0-1.27-.9 2.249 2.249 0 0 0-1.046-.3 2.607 2.607 0 0 0-1.942.822h-.075a2.319 2.319 0 0 0-1.793.971h.448a2.182 2.182 0 0 1 1.867.747 6.031 6.031 0 0 1 .822 3.212v1.942C31.562 31.457 35.82 33.7 36.865 34z" class="cls-3" transform="translate(-28.5 -21)"/>
                    <path id="Path_2753" d="M39.624 29.931c.9 0 2.539-.075 4.033-.075a16.9 16.9 0 0 1 2.017.075h.075s-1.2-3.884-4.332-4.481a15.4 15.4 0 0 0-1.568-.149H39.4c0 .747.075 2.539 0 4.556.149.074.149.074.224.074z" class="cls-3" transform="translate(-31.259 -22.088)"/>
                    <path id="Path_2754" d="M42.286 38.308H39.97c-6.946 0-7.17-4.108-7.17-4.108v.075a7.244 7.244 0 0 0 .672 3.809 8.5 8.5 0 0 0 3.884 3.809 10.945 10.945 0 0 0 4.033.9h.672a6.944 6.944 0 0 0 4.93-2.091 5.09 5.09 0 0 0-4.705-2.394z" class="cls-3" transform="translate(-29.588 -24.341)"/>
                </g>
            </g>
            <g id="Group_3212" transform="translate(18.9 37.959)">
                <path id="Path_2755" d="M21.066 52.528v-2.689h1.718v-1.12h-1.718V47.3H19.8v1.419h-.9v1.12h.9V52.6a2.121 2.121 0 0 0 2.315 2.315c.373 0 .672-.075.822-.075v-1.12c-.224 0-.373.075-.523.075-.825.005-1.348-.37-1.348-1.267z" class="cls-4" transform="translate(-18.9 -45.881)"/>
                <path id="Path_2756" d="M28.1 52.186a3.216 3.216 0 0 0 4.855 2.764v-1.27a2.667 2.667 0 0 1-1.568.448 2.018 2.018 0 0 1 0-4.033 2.344 2.344 0 0 1 1.568.523v-1.27a3.47 3.47 0 0 0-1.718-.448 3.19 3.19 0 0 0-3.137 3.286z" class="cls-4" transform="translate(-21.229 -46.286)"/>
                <path id="Path_2757" d="M40.755 50.2a2.384 2.384 0 0 0-2.091-1.2 3.248 3.248 0 0 0 0 6.423 2.3 2.3 0 0 0 2.091-1.2l.149 1.046h1.12v-6.12H40.9zm-1.793 3.959a1.877 1.877 0 0 1-1.793-2.017 1.772 1.772 0 1 1 3.51 0 1.742 1.742 0 0 1-1.717 2.012z" class="cls-4" transform="translate(-23.203 -46.311)"/>
                <path id="Path_2758" d="M48.539 51.714c-.747-.224-1.27-.373-1.27-.822s.373-.672 1.046-.672a3.1 3.1 0 0 1 1.867.6v-1.2a3.656 3.656 0 0 0-1.867-.523C46.9 49.1 46 49.922 46 50.967c0 1.12.9 1.419 1.942 1.718.822.224 1.344.448 1.344.9s-.448.747-1.2.747A3.133 3.133 0 0 1 46 53.507v1.27a3.558 3.558 0 0 0 2.166.672c1.494 0 2.39-.747 2.39-1.867.075-1.27-1.046-1.644-2.017-1.868z" class="cls-4" transform="translate(-25.759 -46.336)"/>
                <path id="Path_2759" d="M56.962 48.089a2.238 2.238 0 0 0-1.718.822V45.4H53.9v8.963h1.344v-3.735a1.254 1.254 0 0 1 1.344-1.344c.822 0 1.27.448 1.27 1.419v3.66H59.2V50.33a2.043 2.043 0 0 0-2.238-2.241z" class="cls-4" transform="translate(-27.759 -45.4)"/>
                <path id="Rectangle_624" d="M0 0H1.494V1.12H0z" class="cls-4" transform="translate(4.631 4.78)"/>
            </g>
            <g id="Group_3213" transform="translate(19.722 48.415)">
                <path id="Path_2760" d="M33.067 61.175a1.456 1.456 0 0 0-.6-.075.5.5 0 0 0-.448.3.352.352 0 0 0 .075.448l.373-.149a.231.231 0 0 1-.075-.149c0-.075 0-.075.075-.075a.449.449 0 0 1 .3-.075.2.2 0 0 1 .224.224.5.5 0 0 1-.149.523 1.094 1.094 0 0 1-.822.149c-.3-.075-.448-.373-.373-.9l-.448.075c0 .523.149.9.523 1.046a2.181 2.181 0 0 0 .672.149.947.947 0 0 0 .448-.075c.3-.149.523-.3.6-.523a.632.632 0 0 0 0-.523.881.881 0 0 0-.375-.37z" class="cls-5" transform="translate(-22.835 -59.83)"/>
                <path id="Path_2761" d="M36.724 63.2c-.075 0-.075 0-.149.075s-.075.075-.075.149 0 .075.075.149.075.075.149.075.075 0 .149-.075.075-.075.075-.149 0-.075-.075-.149c-.073 0-.073-.075-.149-.075z" class="cls-5" transform="translate(-24.176 -60.362)"/>
                <path id="Path_2762" d="M24.656 60.549a.571.571 0 0 0-.373.149c-.075-.075-.149-.149-.224-.149a1.854 1.854 0 0 0-.672-.075H20.1v.3h.3v1.793h.3v-1.794h2.017v.075l-1.643.523.224.747a1.278 1.278 0 0 1 1.419.448h.3v-1.793h.523a.631.631 0 0 1 .448.149c.075.075.075.149.075.3 0 .3-.075.373-.224.373s-.149-.149-.224-.373l-.373.075c0 .373.224.6.523.523a1.062 1.062 0 0 0 .448-.149.571.571 0 0 0 .373.149c.3 0 .448-.149.448-.523l-.373-.149c0 .149 0 .224-.075.3l-.075.075c-.075 0-.075 0-.149-.075s-.075-.149-.075-.373.149-.373.448-.373c.224 0 .373.149.523.373v.6l-1.494.6.224.448a1.934 1.934 0 0 1 1.344.075h.368v-2.025h.523v.075c-.075.075-.075.149-.149.224 0 .075 0 .149.075.149.075.075.075.075.149.075h.448c-.075.075-.149.149-.224.149H26.3c-.075 0-.075-.075-.149-.075v.373a.328.328 0 0 0 .373.075c.149 0 .224-.075.3-.075.075-.075.149-.149.224-.149a.373.373 0 0 1 .448 0 .5.5 0 0 0-.448.3.352.352 0 0 0 .075.448l.373-.149a.231.231 0 0 1-.075-.149.073.073 0 0 1 .075-.075.449.449 0 0 1 .3-.075.238.238 0 0 1 .224.224.359.359 0 0 1-.149.448.687.687 0 0 1-.747.075c-.224-.075-.373-.3-.3-.672l-.373.075a.858.858 0 0 0 .448.822 1.486 1.486 0 0 0 .971.075.893.893 0 0 0 .523-.523.632.632 0 0 0 0-.523.583.583 0 0 0-.3-.3h-.075v-.822H31v1.793h.224v-1.793h.676l-.3.373a1.191 1.191 0 0 1 .9.3l-.9.3.224.523a2.041 2.041 0 0 1 1.568.224h.373V60.7h.3v-.3h-8.737v.224h-.075a.794.794 0 0 0-.597-.075zm-2.017 1.568a1.467 1.467 0 0 0-1.12-.373h-.149l1.27-.448zm2.689.373a1.42 1.42 0 0 0-.971-.075v-.075l.971-.224zm6.946-1.718h1.046v1.494h-.075a2.431 2.431 0 0 0-1.046-.3h-.149l.822-.3v-.146a1.187 1.187 0 0 0-.747-.6zm-5.676.075a.261.261 0 0 1 .149-.075h.747v.373h-.074a.373.373 0 0 0-.448 0 .274.274 0 0 1-.224.075c-.075 0-.149 0-.149-.075-.075 0-.075-.075-.075-.149s-.001-.073.076-.148z" class="cls-5" transform="translate(-20.025 -59.653)"/>
                <path id="Path_2763" d="M20.373 60.222a1.129 1.129 0 0 1 1.718-.075l.224-.3a2.168 2.168 0 0 0-1.2-.448 1.556 1.556 0 0 0-1.12.523l.373.3z" class="cls-5" transform="translate(-20 -59.4)"/>
                <path id="Path_2764" d="M48.424 63c-.075 0-.149 0-.149.075-.075.075-.075.075-.075.149s0 .149.075.149c.075.075.075.075.149.075s.149 0 .149-.075c.075-.075.075-.075.075-.149s0-.149-.075-.149c0-.075-.073-.075-.149-.075z" class="cls-5" transform="translate(-27.138 -60.311)"/>
                <path id="Path_2765" d="M40.4 60.873c-.075.149-.149.3-.075.373 0 .149 0 .224.075.3l.149.149c.075 0 .075.075.149.075a.274.274 0 0 1 .224.075 1.031 1.031 0 0 1-.224.3c-.075 0-.149.075-.224 0-.075 0-.075-.075-.149-.075v.3a.328.328 0 0 0 .373.075.388.388 0 0 0 .3-.149 1.031 1.031 0 0 0 .224-.3c.075-.149.149-.224.3-.224h.224v.822h.373V60.8h1.942v.075l-1.643.523.224.747a1.278 1.278 0 0 1 1.419.448h.373V60.8h.523v1.793h.3V60.8h2.013v.075l-1.643.523.224.747a1.278 1.278 0 0 1 1.419.448h.373V60.8h.373v-.3H40.1v.3l.3.075zm3.585 1.27a1.467 1.467 0 0 0-1.12-.373h-.149l1.27-.448zm3.212 0a1.467 1.467 0 0 0-1.12-.373h-.149l1.27-.448zm-6.5-1.12c0-.075.075-.149.149-.224h.747v.6h-.3a.261.261 0 0 0-.149.075H41a.274.274 0 0 1-.224-.075l-.149-.149a.274.274 0 0 1 .073-.227z" class="cls-5" transform="translate(-25.087 -59.678)"/>
                <path id="Path_2766" d="M51.9 60.849h.3v.075c-.075.149-.149.3-.075.373 0 .149 0 .224.075.3l.149.149c.075 0 .075.075.149.075a.274.274 0 0 1 .224.075 1.031 1.031 0 0 1-.224.3c-.075 0-.149.075-.224 0-.075 0-.075-.075-.149-.075v.3a.328.328 0 0 0 .373.075.388.388 0 0 0 .3-.149 1.031 1.031 0 0 0 .224-.3c.075-.149.149-.224.3-.224h.224v.822h.373v-1.796h.523v1.793h.373v-1.793h.672v.075a1.5 1.5 0 0 0-.3.6 1.055 1.055 0 0 0 .075.672.673.673 0 0 0 .448.448 1.01 1.01 0 0 0 .672 0v-.373c-.3.224-.523.149-.672-.075a1.273 1.273 0 0 1 0-.747.673.673 0 0 1 .447-.449h.224v-.3h-4.332v.149zm.523.224c0-.075.075-.149.149-.224h.747v.6h-.3c-.075 0-.075 0-.149.075h-.149a.274.274 0 0 1-.224-.075l-.149-.149c0-.077.075-.152.075-.227z" class="cls-5" transform="translate(-28.074 -59.729)"/>
                <path id="Path_2767" d="M57.781 61.322l.448-.075a.246.246 0 0 1 0-.373c.075-.149.3-.149.523-.075.075 0 .149.075.224.149a.227.227 0 0 1 0 .3.864.864 0 0 1-.523.373 1.645 1.645 0 0 1-.6.075l.149.448a1.67 1.67 0 0 1 1.568.3v.149h.373V60.8h.373v-.3h-.747v1.568H59.5a2.653 2.653 0 0 0-.672-.3c.373-.224.523-.523.448-.747a.6.6 0 0 0-.672-.448c-.373 0-.6 0-.822.224a.613.613 0 0 0-.001.525z" class="cls-5" transform="translate(-29.548 -59.678)"/>
            </g>
            <path id="Rectangle_625" d="M0 0H0.299V0.299H0z" class="cls-6" transform="translate(28.684 41.768)"/>
            <path id="Rectangle_626" d="M0 0H0.448V0.448H0z" class="cls-6" transform="translate(19.572 49.312)"/>
        </g>
    </g>
</svg>
